<svg width="88" height="88" viewBox="0 0 88 88" fill="none" xmlns="http://www.w3.org/2000/svg">
<path fill-rule="evenodd" clip-rule="evenodd" d="M30.0823 49.2823L23.3271 64.3678H37.9347L43.897 50.3903L49.7447 64.3678H64.3362L56.6896 47.6768C56.6896 47.6768 56.6824 47.6785 56.6771 47.6785C41.4716 51.586 31.2619 49.8909 30.0823 49.2823Z" fill="#7F0405"/>
<path fill-rule="evenodd" clip-rule="evenodd" d="M47.4295 31.8965C48.2904 31.7783 49.069 31.696 49.7707 31.6405L43.7565 18.5078L37.2144 33.1208C41.1039 32.5856 44.8144 32.2545 47.4295 31.8965Z" fill="#7F0405"/>
<path fill-rule="evenodd" clip-rule="evenodd" d="M33.603 78.6337C33.603 78.6337 33.2987 78.5782 33.1752 78.7501C33.1752 78.7501 33.211 79.3085 32.6776 79.3837C32.6776 79.3837 32.2462 79.3712 32.1603 79.5018C32.1603 79.5018 32.0046 80.2644 32.1514 80.3932C32.1514 80.3932 32.887 81.4063 32.8548 81.92C32.8548 81.92 32.8763 82.5465 32.7349 82.815C32.7349 82.815 32.8817 83.0155 33.1018 82.9099C33.1018 82.9099 33.5063 82.4123 34.0397 81.1307C34.0397 81.1307 34.2044 80.8139 34.5445 81.1325L34.5749 81.2667C34.5749 81.2667 34.7324 81.426 35.017 81.3043C35.017 81.3043 35.3876 80.0514 35.4413 79.731C35.4413 79.731 35.5218 79.3604 35.3088 79.5555C35.3088 79.5555 35.2211 79.7399 35.2175 79.6844C35.2175 79.6844 35.0242 79.7327 34.983 79.5949C34.983 79.5949 35.3482 77.9195 35.3231 77.6958C35.3231 77.6958 35.1352 76.953 34.5642 76.3587C34.5642 76.3587 34.1131 76.1207 34.1543 76.6577C34.1543 76.6577 34.3995 77.1033 34.5338 77.5293C34.5338 77.5293 34.4836 78.1952 34.2348 78.9434C34.2348 78.9434 33.9234 79.8258 33.705 80.2124C33.705 80.2124 33.6281 80.3234 33.5565 80.4344C33.5475 80.4451 33.5421 80.4559 33.535 80.4666C33.4562 80.5883 33.109 80.4791 33.0982 80.3377C33.0982 80.3377 33.1036 80.0281 33.3435 79.5287C33.3435 79.5287 33.6048 79.0347 33.6656 78.793C33.6656 78.793 33.7014 78.6624 33.603 78.6337Z" fill="#284345"/>
<path fill-rule="evenodd" clip-rule="evenodd" d="M37.0433 76.8C37.0433 76.8 36.5923 76.8287 36.5117 76.9862C36.5117 76.9862 36.3685 77.1187 36.5726 77.2457C36.5726 77.2457 36.1591 79.1055 35.9318 79.553C35.9318 79.553 35.4449 80.6377 35.4145 80.9079C35.4145 80.9079 34.9044 81.5666 34.899 82.0213C34.899 82.0213 34.788 82.8733 35.0816 83.3745C35.0816 83.3745 35.4395 83.9347 35.7796 83.3834C35.7796 83.3834 35.9049 82.9896 35.7277 82.4705C35.7277 82.4705 35.7492 82.0428 35.8978 81.5541C35.8978 81.5541 36.0087 81.2695 36.22 81.4521C36.22 81.4521 36.2522 81.5595 36.2933 81.5702C36.2933 81.5702 36.4294 81.6114 36.5028 81.5738L36.5493 81.4735L36.6406 81.4628L36.9144 80.2475L37.0505 80.2367C37.0505 80.2367 37.1149 79.7731 37.1901 79.6908C37.1901 79.6908 37.2008 79.5923 36.9699 79.5834C36.9699 79.5834 36.952 79.2791 37.0451 79.2111C37.0451 79.2111 37.1113 79.2164 37.1471 79.2021C37.1471 79.2021 37.5015 78.164 37.4228 77.6002C37.4228 77.6002 37.4622 77.0542 37.0433 76.8Z" fill="#284345"/>
<path fill-rule="evenodd" clip-rule="evenodd" d="M38.5956 76.6305L38.4542 77.2301L38.5294 77.248L37.638 81.1948L37.5431 81.2181L37.2943 82.0486L37.1905 82.0576L37.0437 82.5444C37.0437 82.5444 36.8594 82.6232 36.8164 82.9919C36.8164 82.9919 36.8844 84.218 37.3856 84.7353C37.3856 84.7353 37.7669 84.8695 37.885 84.508L37.8259 84.329L38.03 83.3195L37.9691 83.2944L38.6618 80.7563L38.7567 80.7796L39.3008 79.029C39.3008 79.029 39.6123 77.8906 39.1487 76.8811C39.1487 76.8811 38.8122 76.5589 38.5956 76.6305Z" fill="#284345"/>
<path fill-rule="evenodd" clip-rule="evenodd" d="M50.8625 76.0319C50.8625 76.0319 51.8631 78.9907 51.9758 80.1112C51.9758 80.1112 52.0188 80.8146 51.7592 81.0007C51.7592 81.0007 51.3225 81.5341 50.5904 81.6022L50.2843 81.3999C50.2843 81.3999 50.0391 81.3337 49.9425 81.5198C49.9425 81.5198 49.8601 81.7525 49.9389 81.817C49.9389 81.817 50.1644 81.8707 50.236 82.055C50.236 82.055 50.4508 82.3754 50.7497 82.5472C50.7497 82.5472 51.0057 82.66 51.7002 82.1714C51.7002 82.1714 51.9543 81.9548 52.0403 81.8868C52.0403 81.8868 52.2014 82.4542 51.9901 83.0753C51.9812 83.0985 51.974 83.1218 51.9651 83.1433C51.7145 83.7912 51.4138 83.9344 50.9395 84.1313C50.9395 84.1313 50.8893 84.2906 51.122 84.2924C51.122 84.2924 51.7503 84.6128 51.8738 84.7345C51.8738 84.7345 52.2819 84.8688 52.4698 84.5645C52.4698 84.5645 53.0068 84.1904 52.8547 82.8784C52.8547 82.8784 52.9102 82.4219 53.2198 82.5562C53.2198 82.5562 53.8928 83.265 54.4334 83.5532C54.4334 83.5532 54.8308 83.6373 55.2031 83.6767C55.2031 83.6767 56.1231 83.4726 56.2251 83.4852C56.2251 83.4852 56.6475 83.614 56.8552 83.4887C56.8552 83.4887 56.891 83.1003 56.5473 82.873C56.5473 82.873 56.1446 82.6904 55.1046 82.703C55.1046 82.703 54.9704 82.7799 54.6947 82.7191C54.6947 82.7191 54.2938 82.3879 54.0969 82.2286C54.0969 82.2286 53.5438 81.9315 53.2628 81.9405C53.2628 81.9405 52.9728 81.8331 53.1536 81.5843C53.1536 81.5843 53.0516 81.2495 53.2932 80.8576C53.2932 80.8576 53.7765 80.4172 54.9489 79.8803C54.9489 79.8803 55.0276 79.6762 54.7556 79.4775C54.7556 79.4775 54.2777 79.4095 54.0432 79.2269C54.0432 79.2269 53.5706 79.1339 53.5492 79.0282C53.5492 79.0282 53.3308 79.0945 53.4006 79.49C53.4006 79.49 53.5581 79.721 53.2252 79.823C53.2252 79.823 53.005 79.934 52.9889 79.8498C52.9889 79.8498 52.7509 77.8773 52.5432 77.1793C52.5432 77.1793 52.1333 75.7061 51.2276 75.869C51.2276 75.869 50.9001 75.8368 50.8625 76.0319Z" fill="#284345"/>
<path fill-rule="evenodd" clip-rule="evenodd" d="M63.6711 69.7025C63.6711 69.7025 63.6997 70.0569 63.8644 70.3182C63.8644 70.3182 63.9718 70.4811 63.7534 70.6225C63.7534 70.6225 63.5905 70.7299 63.4795 70.6977C63.3703 70.6672 63.5905 70.7299 63.5905 70.7299C63.5905 70.7299 63.4187 70.6207 63.1305 70.8373C63.1305 70.8373 63.2146 70.9214 63.1377 70.9823L62.9766 70.9948C62.9766 70.9948 63.1215 71.3242 63.2307 71.3188C63.2307 71.3188 63.3113 71.1631 63.356 71.3438C63.356 71.3438 63.7767 72.2048 63.9664 72.3784C63.9664 72.3784 64.1239 72.3265 64.1543 72.3838C64.1543 72.3838 64.1669 72.3408 64.2886 72.459C64.2886 72.459 64.4282 72.4733 64.6179 72.3498C64.6179 72.3498 64.5732 72.3015 64.6126 72.2048C64.6126 72.2048 64.6394 72.1529 64.7003 72.0634C64.7629 71.9739 64.6698 72.0061 64.6698 72.0061C64.6698 72.0061 64.566 71.9882 64.5624 71.8808C64.5624 71.8808 64.4676 71.8772 64.5785 71.7645C64.5785 71.7645 64.6466 71.8397 64.5481 71.6213C64.5481 71.6213 64.2707 71.2561 64.3459 71.1881C64.3459 71.1881 64.3781 71.2221 64.328 71.002C64.328 71.002 64.4622 70.9518 64.3888 70.8212C64.3781 70.8015 64.3083 70.6297 64.3083 70.6297C64.3083 70.6297 64.4532 70.4005 64.5266 70.5079C64.5266 70.5079 64.6322 70.746 64.7164 70.6762C64.7164 70.6762 64.8417 70.7675 64.8846 70.8427C64.8846 70.8427 64.9544 70.7908 65.0511 70.8982C65.0511 70.8982 65.3321 70.891 65.5039 70.6458C65.5039 70.6458 65.4431 69.8886 65.563 69.613C65.563 69.613 65.7402 69.5521 65.7545 69.4698C65.7545 69.4698 65.6453 69.4931 65.7402 69.3534C65.7402 69.3534 65.9389 69.2192 66.0266 69.3552C66.0266 69.3552 66.2324 69.3033 66.3237 69.178C66.3237 69.178 66.4562 69.3517 66.4705 69.4197C66.4705 69.4197 65.9836 70.7263 65.81 71.4423C65.81 71.4423 65.7832 71.5944 65.8924 71.6571C65.8924 71.6571 64.5445 72.885 64.1919 73.5007C64.1919 73.5007 63.8823 73.9446 64.328 74.4154C64.328 74.4154 64.8864 74.6624 65.1442 74.7053C65.1442 74.7053 65.1871 74.2006 65.5129 73.4506C65.5129 73.4506 66.3649 71.8397 67.2008 71.3635C67.2008 71.3635 67.2563 71.5067 67.5248 71.3456C67.5248 71.3456 67.8989 71.7949 67.668 71.9596C67.668 71.9596 67.5337 72.2299 67.4908 72.3784C67.4908 72.3784 67.4335 72.4733 67.2437 72.4894C67.2437 72.4894 66.9144 72.45 66.8285 72.7203C66.8285 72.7203 66.5331 72.9709 66.4096 73.5956C66.4096 73.5956 66.6244 74.5406 67.2813 73.7191C67.2813 73.7191 67.5588 72.7006 67.8201 73.5311C67.8201 73.5311 67.9365 73.9607 67.9007 74.2543C67.9007 74.2543 67.5087 74.6194 67.2312 75.1707C67.2312 75.1707 66.9448 75.5878 66.5081 75.7184C66.5081 75.7184 65.9675 75.7453 66.0212 76.2858C66.0212 76.2858 66.066 76.5686 66.6549 76.293C66.6549 76.293 67.7467 76.0961 68.486 75.7596C68.486 75.7596 68.9263 75.7256 68.5468 76.1355C68.5468 76.1355 67.3762 76.8586 67.0594 77.1325C67.0594 77.1325 66.8697 77.6193 68.4269 77.2148C68.4269 77.2148 68.7222 77.077 68.835 77.102C68.835 77.102 69.5402 76.9445 69.5438 76.4845C69.5492 76.0245 69.5366 76.4272 69.5366 76.4272C69.5366 76.4272 69.7962 75.8885 69.5223 75.1492C69.5223 75.1492 70.0289 74.657 70.2616 74.2077C70.2616 74.2077 70.1613 73.3342 68.5092 73.8802C68.5092 73.8802 68.3213 73.6994 68.4036 73.1105C68.4036 73.1105 68.4215 72.4697 68.443 72.1976C68.443 72.1976 68.7706 71.9417 68.8618 71.4817C68.8618 71.4817 69.1464 70.9662 68.4341 70.755C68.4341 70.755 68.2801 70.5187 67.9615 70.7943C67.9615 70.7943 67.9669 70.4704 66.8124 70.9984C66.8124 70.9984 66.4705 71.027 66.7748 70.3254C66.7748 70.3254 67.3082 69.2335 67.5928 68.9328C67.5928 68.9328 67.7843 68.4871 66.9377 68.3994C66.9377 68.3994 66.7766 68.4567 66.6763 68.5193C66.6763 68.5193 66.662 68.3153 66.2002 68.6661C66.2002 68.6661 65.7796 68.7305 65.5881 68.5283C65.5881 68.5283 65.2551 68.3851 65.2838 68.7288C65.2838 68.7288 65.2569 69.0277 65.1513 69.2049C65.1513 69.2049 64.8363 69.5629 64.5553 69.4913C64.5553 69.4913 64.3118 69.5324 64.0738 69.4483C64.0738 69.4483 63.7981 69.3964 63.6711 69.7025Z" fill="#284345"/>
<path fill-rule="evenodd" clip-rule="evenodd" d="M21.6314 67.7183C21.6314 67.7183 21.8354 67.8436 21.975 68.0691C21.975 68.0691 22.0269 68.2087 22.3509 68.3591C22.3509 68.3591 23.3568 68.649 23.4088 68.6204C23.4088 68.6204 23.7148 68.828 23.8383 68.76C23.8383 68.76 24.0853 68.5434 24.216 68.4682C24.216 68.4682 24.472 68.3412 24.5292 68.6669C24.5292 68.6669 24.5257 69.0965 24.3843 69.3578C24.3843 69.3578 24.2429 69.6335 23.9654 69.7713C23.9654 69.7713 22.7232 69.6532 22.3706 69.6031C22.3706 69.6031 21.8998 69.5834 22.0359 70.0004C22.0359 70.0004 22.1057 70.2385 22.1272 70.3674C22.1272 70.3674 22.1415 70.6573 21.7817 70.7414C21.7817 70.7414 21.4416 70.6609 21.2966 70.7379C21.2966 70.7379 21.0962 70.9652 21.2 71.2176C21.2 71.2176 21.1015 71.7653 21.0639 71.8458C21.0639 71.8458 20.9583 72.3041 20.6165 72.2772C20.6165 72.2772 20.2764 72.2504 20.1439 72.3255C20.1439 72.3255 19.9757 72.4114 20.237 72.6227C20.237 72.6227 20.5127 72.6943 20.7597 72.8536C20.7597 72.8536 21.0962 73.1954 20.706 73.2831C20.314 73.3691 20.731 73.233 20.731 73.233C20.731 73.233 20.1171 73.3888 19.777 73.4621C19.4387 73.5355 19.7967 73.4228 19.7967 73.4228C19.7967 73.4228 19.6839 73.5266 19.7627 73.6179C19.7627 73.6179 19.8754 74.4913 19.6821 74.9872C19.6821 74.9872 19.3886 75.4328 19.1022 74.8243C19.1022 74.8243 19.2382 74.0564 19.3062 73.8183C19.3062 73.8183 19.2257 73.557 19.0843 73.5964C19.0843 73.5964 18.3021 73.7843 18.0282 74.0206C18.0282 74.0206 17.5467 73.9758 17.9531 73.5964C17.9531 73.5964 18.6225 73.3744 19.3456 73.2366C19.3456 73.2366 19.6785 73.242 19.7448 73.0737C19.7448 73.0737 19.743 72.8357 19.5067 72.9216C19.5067 72.9216 18.0837 72.9216 16.9811 72.9055C16.9811 72.9055 16.4209 72.6853 16.6661 72.0069C16.6661 72.0069 16.5999 71.8136 17.8689 72.1072C17.8689 72.1072 18.6529 72.1018 18.9697 71.8852C18.9697 71.8852 19.4333 71.6901 20.0097 71.5326C20.0097 71.5326 20.3641 71.3178 19.9864 71.1639C19.9864 71.1639 19.7394 71.1585 20.3802 70.5088C20.3802 70.5088 20.2979 70.3011 20.1296 70.319C20.1296 70.319 19.1362 70.4443 18.7818 70.2975C18.7818 70.2975 18.3612 70.0094 18.7836 69.5583C18.7836 69.5583 18.8659 69.4026 19.9828 69.4187C19.9828 69.4187 21.5257 69.3918 21.9893 69.2522C21.9893 69.2522 22.052 69.2755 22.2954 69.1663C22.2954 69.1663 22.4708 69.2236 22.6713 69.2343C22.6713 69.2343 22.9326 69.0858 22.9684 68.9032C23.0042 68.7224 22.9953 68.871 22.9953 68.871C22.9953 68.871 22.6122 68.726 22.0072 68.8191C22.0072 68.8191 21.5902 69.109 21.549 68.8656C21.549 68.8656 21.1821 67.9957 21.6314 67.7183Z" fill="#284345"/>
<path fill-rule="evenodd" clip-rule="evenodd" d="M22.1462 75.7743C22.1462 75.7743 21.6898 75.4771 21.6307 75.3662C21.6307 75.3662 24.0382 72.4074 24.0972 72.4253C24.0972 72.4253 24.278 72.2266 24.6109 72.436C24.6109 72.436 25.0316 72.5864 24.6396 72.9498C24.6306 72.9569 24.6235 72.9641 24.6145 72.9712C24.1814 73.3507 24.031 73.3024 23.469 73.723C23.469 73.723 23.1199 74.0881 23.1539 74.3674C23.1539 74.3674 23.3168 74.9795 22.5812 75.6794C22.5812 75.6794 22.361 76.0123 22.1462 75.7743ZM23.6265 75.1281C23.5549 74.5965 23.6766 73.8984 23.6766 73.8984C25.164 73.4921 25.4271 72.9802 25.4271 72.9802C25.778 72.3591 25.1282 72.0262 25.1282 72.0262C24.602 71.9886 24.6915 71.8257 24.6915 71.8257C24.6915 71.8257 24.2691 72.2606 24.7183 71.7756C25.1676 71.2923 25.5184 70.9629 25.5184 70.9629C25.6187 70.5835 25.1712 70.5692 25.1712 70.5692C24.8669 70.5459 23.7947 71.849 23.7947 71.849C23.75 72.0065 23.5835 71.9546 23.5835 71.9546C22.7548 72.0476 22.08 72.3644 22.08 72.3644C21.6898 72.8406 22.3359 72.837 22.3359 72.837C22.6026 72.5954 22.8353 72.6168 22.8353 72.6168C23.0286 72.6186 22.8765 72.7887 22.8765 72.7887C22.1015 73.6228 19.4846 76.961 19.4846 76.961C19.2215 77.4729 19.3486 77.8685 19.3486 77.8685C19.6188 78.3392 20.1809 77.3727 20.1809 77.3727C20.9631 76.1555 21.3049 75.819 21.3049 75.819C21.3336 75.7313 21.4571 75.8727 21.4571 75.8727C21.7113 76.7086 22.9159 76.2235 22.9159 76.2235C23.5513 75.7492 23.6265 75.1281 23.6265 75.1281Z" fill="#284345"/>
<path fill-rule="evenodd" clip-rule="evenodd" d="M12.1046 54.0385L11.181 54.2479L6.63103 51.7832L7.3291 54.8332L6.37328 55.0534L5.33154 50.507L6.26946 50.2922L10.8195 52.8249L10.0158 49.3131L10.9734 49.0947L12.1046 54.0385Z" fill="#284345"/>
<path fill-rule="evenodd" clip-rule="evenodd" d="M10.6731 43.5027L8.24949 43.5564L8.30856 46.2037L10.7321 46.1518L10.759 47.36L4.9435 47.4871L4.91844 46.2807L7.2704 46.2288L7.21133 43.5797L4.85937 43.6316L4.83252 42.4162L10.6462 42.2874L10.6731 43.5027Z" fill="#284345"/>
<path fill-rule="evenodd" clip-rule="evenodd" d="M10.8402 40.122L5.11963 39.0731L5.91436 34.7361L6.88808 34.9151L6.31172 38.0618L7.65238 38.3088L8.19472 35.3554L9.1595 35.5326L8.61894 38.486L10.092 38.7563L10.6863 35.5111L11.6529 35.6883L10.8402 40.122Z" fill="#284345"/>
<path fill-rule="evenodd" clip-rule="evenodd" d="M13.6788 30.1822C13.6788 30.1822 9.41344 30.9197 9.26487 30.9447C9.12526 30.9698 8.75116 31.0074 8.63124 31.0199L8.62766 31.0253C8.84245 31.0986 9.23802 31.2544 9.55842 31.385L12.6622 32.6595L12.2308 33.7119L6.85205 31.5032L7.35323 30.2806C7.35323 30.2806 11.5077 29.5736 11.6401 29.5504C11.7869 29.5289 12.1789 29.4823 12.2863 29.4806L12.2916 29.468C12.1162 29.4107 11.6705 29.2353 11.4808 29.1584L8.34127 27.8768L8.77622 26.8171L14.1532 29.0259L13.6788 30.1822Z" fill="#284345"/>
<path fill-rule="evenodd" clip-rule="evenodd" d="M17.2857 22.0124C17.7332 22.7409 17.6759 23.7182 16.8489 24.8977C15.8359 26.344 14.216 26.5373 12.725 25.4902C11.2501 24.4574 10.9386 22.859 11.8783 21.5166C12.7106 20.3316 13.6629 20.0059 14.6044 20.201L14.3144 21.3519C13.679 21.2516 13.1706 21.4826 12.7464 22.0893C12.2309 22.825 12.5746 23.8327 13.4588 24.4538C14.5417 25.2128 15.5262 24.964 16.0184 24.2641C16.4319 23.6734 16.5268 23.1454 16.3603 22.7176L15.6837 22.2433L14.6778 23.677L13.8848 23.1221L15.528 20.7791L17.2857 22.0124Z" fill="#284345"/>
<path fill-rule="evenodd" clip-rule="evenodd" d="M19.3475 21.4888L18.6978 20.7997L18.5224 15.625L16.2438 17.7729L15.5708 17.0569L18.9645 13.8601L19.625 14.56L19.7431 19.7651L22.3672 17.295L23.0402 18.011L19.3475 21.4888Z" fill="#284345"/>
<path fill-rule="evenodd" clip-rule="evenodd" d="M27.7125 14.9152L26.4398 12.8532L24.1845 14.244L25.4572 16.306L24.4298 16.9396L21.3779 11.9941L22.4053 11.3586L23.6404 13.3598L25.8939 11.969L24.6589 9.96786L25.6934 9.32886L28.7453 14.2762L27.7125 14.9152Z" fill="#284345"/>
<path fill-rule="evenodd" clip-rule="evenodd" d="M33.7621 9.22623C33.3647 8.06994 32.5431 7.54728 31.6338 7.85873C30.7729 8.15407 30.4006 9.09557 30.7944 10.2393C31.2096 11.4475 32.0903 11.8628 32.9065 11.5818C33.8408 11.2614 34.1576 10.3754 33.7621 9.22623ZM35.0043 8.80023C35.5896 10.5025 34.8897 12.006 33.2788 12.5591C31.709 13.0996 30.1947 12.364 29.6059 10.6546C29.0367 8.99712 29.6148 7.46136 31.3385 6.8689C33.0157 6.29254 34.4673 7.23583 35.0043 8.80023Z" fill="#284345"/>
<path fill-rule="evenodd" clip-rule="evenodd" d="M37.2646 5.34931L38.4657 5.21686L38.8255 8.50495C38.949 9.61471 39.5647 9.99417 40.338 9.91005C41.2007 9.81518 41.6106 9.26567 41.4925 8.19709L41.1345 4.9251L42.3284 4.79443L42.6845 8.04494C42.8707 9.73105 42.1726 10.7603 40.4096 10.9536C38.7664 11.1344 37.8142 10.3557 37.6244 8.63562L37.2646 5.34931Z" fill="#284345"/>
<path fill-rule="evenodd" clip-rule="evenodd" d="M51.082 5.37134L52.2544 5.66131L51.4614 8.87065C51.193 9.95355 51.6422 10.5227 52.3958 10.7107C53.2388 10.9183 53.8116 10.5442 54.0712 9.50249L54.8605 6.30568L56.0258 6.59386L55.2418 9.76919C54.8337 11.4159 53.8259 12.1408 52.104 11.7148C50.4985 11.3193 49.872 10.2614 50.2872 8.58068L51.082 5.37134Z" fill="#284345"/>
<path fill-rule="evenodd" clip-rule="evenodd" d="M60.1946 14.7405C60.1946 14.7405 59.774 10.4304 59.7615 10.2836C59.7454 10.1404 59.7346 9.7645 59.7328 9.64458L59.7257 9.641C59.638 9.85042 59.4536 10.2317 59.2997 10.5431L57.7997 13.543L56.7812 13.0347L59.3802 7.83496L60.5634 8.42564C60.5634 8.42564 60.9625 12.6194 60.975 12.7537C60.9876 12.9022 61.0037 13.296 60.9965 13.4034L61.0091 13.4106C61.0789 13.2405 61.2865 12.8074 61.3796 12.623L62.8885 9.5873L63.9123 10.0992L61.3133 15.299L60.1946 14.7405Z" fill="#284345"/>
<path fill-rule="evenodd" clip-rule="evenodd" d="M63.9048 17.1348L62.9248 16.4398L66.289 11.697L67.269 12.3921L63.9048 17.1348Z" fill="#284345"/>
<path fill-rule="evenodd" clip-rule="evenodd" d="M67.6384 20.3282L66.6504 19.3885L69.0417 13.6375L69.9886 14.5396L68.1736 18.5257C68.0644 18.7531 67.9552 19.0019 67.9123 19.077L67.9284 19.0914C68.0107 19.0359 68.2918 18.8837 68.4707 18.7889L72.3066 16.7448L73.2427 17.6361L67.6384 20.3282Z" fill="#284345"/>
<path fill-rule="evenodd" clip-rule="evenodd" d="M70.2168 23.0709L74.9708 19.7219L77.5108 23.3268L76.7017 23.8978L74.8581 21.2809L73.743 22.0649L75.472 24.5207L74.6683 25.0863L72.9411 22.6306L71.715 23.4933L73.6159 26.1907L72.8122 26.7563L70.2168 23.0709Z" fill="#284345"/>
<path fill-rule="evenodd" clip-rule="evenodd" d="M77.2062 28.2592L77.7074 29.3887C78.0242 30.1064 78.4019 30.2944 78.9048 30.0724C79.3953 29.8541 79.5456 29.4782 79.2109 28.7228L78.7115 27.5934L77.2062 28.2592ZM75.2247 31.755L76.7301 29.4352L76.3721 28.628L74.2474 29.5695L73.7588 28.4651L79.0749 26.1113L80.1524 28.5456C80.7306 29.8505 80.3618 30.817 79.4705 31.2126C78.6328 31.5831 77.9132 31.4614 77.31 30.57L75.8441 33.1565L75.2247 31.755Z" fill="#284345"/>
<path fill-rule="evenodd" clip-rule="evenodd" d="M78.5211 35.1465C77.6995 35.458 77.4328 35.9806 77.6046 36.761C77.7478 37.409 78.1541 37.6739 78.5533 37.5862C78.8844 37.5128 79.0921 37.307 79.1726 36.6894C79.2138 36.412 79.2388 36.0075 79.2442 35.6316C79.2639 34.4109 79.6559 33.89 80.5043 33.7038C81.3384 33.5177 82.2047 34.1656 82.484 35.4293C82.7972 36.8434 82.407 37.6309 81.419 38.1035L80.9339 36.9937C81.4476 36.8004 81.7179 36.3869 81.5657 35.696C81.4333 35.0964 81.0681 34.8816 80.771 34.946C80.3987 35.0284 80.2555 35.2987 80.2537 36.1757C80.2519 36.6608 80.1964 37.128 80.1195 37.4645C79.9297 38.3093 79.4321 38.7085 78.8791 38.8302C77.9071 39.045 77.0014 38.4865 76.6739 37.0027C76.3374 35.4777 76.8153 34.597 78.0253 34.0475L78.5211 35.1465Z" fill="#284345"/>
<path fill-rule="evenodd" clip-rule="evenodd" d="M77.476 42.0588L77.3853 40.8674L83.1834 40.426L83.2741 41.6174L77.476 42.0588Z" fill="#284345"/>
<path fill-rule="evenodd" clip-rule="evenodd" d="M82.2646 46.8849L77.439 46.6093L77.507 45.4028L82.3326 45.6785L82.4418 43.7722L83.4227 43.8295L83.1363 48.8377L82.1554 48.7822L82.2646 46.8849Z" fill="#284345"/>
<path fill-rule="evenodd" clip-rule="evenodd" d="M82.498 52.3493C82.498 52.3493 80.4163 53.0187 80.2427 53.0688C80.0691 53.119 79.8167 53.1923 79.6377 53.2353L79.6359 53.2407C79.7487 53.3427 79.933 53.536 80.0744 53.6667C80.3 53.8922 81.7337 55.3259 81.7337 55.3259L81.39 56.6666L78.6103 53.5467L76.3389 52.9632L76.6378 51.7926L78.8895 52.3708L82.8381 51.0229L82.498 52.3493Z" fill="#284345"/>
<path fill-rule="evenodd" clip-rule="evenodd" d="M22.6221 22.6214C17.1503 28.0932 13.7674 35.6485 13.7674 44.0003C13.7674 52.3503 17.1503 59.9056 22.6221 65.3774C28.094 70.8492 35.651 74.234 44.001 74.234C52.3511 74.234 59.9063 70.8492 65.3781 65.3774C70.8517 59.9056 74.2347 52.3503 74.2347 44.0003C74.2347 35.6485 70.8517 28.0932 65.3781 22.6214C59.9063 17.1496 52.3511 13.7666 44.001 13.7666C35.651 13.7666 28.0957 17.1496 22.6221 22.6214ZM12.9351 44.0003C12.9368 26.8439 26.8446 12.9343 44.001 12.9343C61.1575 12.9343 75.0652 26.8439 75.0652 44.0003C75.0652 61.1568 61.1575 75.0645 44.001 75.0645C26.8446 75.0645 12.9368 61.1568 12.9351 44.0003Z" fill="#284345"/>
<path fill-rule="evenodd" clip-rule="evenodd" d="M14.1368 14.1368C6.49207 21.7816 1.76845 32.335 1.76666 44C1.76845 55.6667 6.49207 66.2184 14.1368 73.8649C21.7834 81.5079 32.335 86.2333 44 86.2351C55.665 86.2333 66.2184 81.5079 73.8649 73.8649C81.5079 66.2184 86.2351 55.6667 86.2351 44C86.2351 32.335 81.5079 21.7816 73.8649 14.1368C66.2184 6.49207 55.665 1.76666 44 1.76666C32.335 1.76666 21.7834 6.49207 14.1368 14.1368ZM0 44C0.00178993 19.6999 19.6999 0.00178993 44 0C68.3018 0.00178993 88 19.6999 88 44C88 68.3018 68.3018 88 44 88C19.6999 88 0.00178993 68.3018 0 44Z" fill="#284345"/>
<path fill-rule="evenodd" clip-rule="evenodd" d="M21.9248 48.769C23.2852 45.3717 26.3585 43.4028 29.5875 42.0299C33.2819 40.4583 37.2932 39.4721 41.1791 38.5002C42.2047 38.2424 43.2357 38.0187 44.2596 37.7663C42.3783 38.4107 40.5294 39.1785 38.7287 40.0198C37.2806 40.6964 35.8505 41.4339 34.5152 42.3145C33.4591 43.0144 32.2957 43.8449 31.6638 44.9761C31.3488 45.5382 31.211 46.1825 31.4383 46.809C31.6638 47.4247 32.233 47.7613 32.8327 47.942C33.4609 48.13 34.1143 48.2141 34.7622 48.2946C35.446 48.3806 36.1297 48.4522 36.817 48.5059C37.2019 48.5381 37.5867 48.5613 37.9715 48.5792C39.2191 48.6347 40.4703 48.6312 41.7179 48.5757C42.6522 48.5309 43.5848 48.4611 44.5155 48.368C44.784 48.3412 45.0507 48.3108 45.3192 48.2785C47.3543 48.0405 49.3752 47.6843 51.3727 47.235C54.659 46.4976 58.0313 45.8729 61.2084 44.7327C62.6582 44.2118 64.0705 43.5782 65.4505 42.8926C66.7411 42.2519 68.1766 41.543 68.7995 40.1541C69.3955 38.8259 68.9624 37.3886 68.2518 36.2019C67.3765 34.7467 66.1361 33.023 64.7847 31.9812C64.7507 32.4269 64.6558 32.844 64.4625 33.2485C64.1367 33.9376 63.6337 34.5498 63.12 35.1065C62.2627 36.0336 61.2675 36.8284 60.1971 37.4978C58.4304 38.604 56.4758 39.3933 54.5141 40.0807C51.6036 41.1009 48.6198 41.901 45.645 42.6975C45.253 42.8032 44.8628 42.9231 44.469 43.0126C44.5853 42.9607 44.6999 42.9052 44.8162 42.8515C45.1313 42.7029 45.4463 42.5508 45.7577 42.395C46.2231 42.1641 46.6867 41.9297 47.1467 41.688C47.7105 41.3927 48.269 41.0884 48.8221 40.7752C49.4325 40.4297 50.0374 40.0735 50.6335 39.703C51.2421 39.3235 51.8435 38.9297 52.4288 38.5145C52.989 38.1171 53.5368 37.7001 54.0558 37.2526C54.523 36.8534 54.9705 36.4274 55.3679 35.9603C56.0104 35.2049 56.7013 34.0665 56.3308 33.0373C56.2306 32.7599 56.0462 32.5254 55.8082 32.3518C54.4281 31.3476 52.171 31.4765 50.5655 31.5714C44.9093 31.9007 39.1314 32.7115 33.5522 33.6853C32.9436 33.7927 32.3351 33.9054 31.7283 34.0289C31.1287 34.1488 30.529 34.2777 29.933 34.4173C29.3548 34.5534 28.7785 34.7001 28.2039 34.8577C27.6508 35.0098 27.0995 35.1745 26.5554 35.3535C26.0309 35.5253 25.5119 35.7115 24.9982 35.9137C24.5149 36.1052 24.0388 36.3129 23.5698 36.5402C23.1313 36.7532 22.7017 36.9841 22.2846 37.2365C21.8944 37.4745 21.5167 37.7323 21.1588 38.0169C20.8258 38.28 20.5108 38.5646 20.2226 38.876C19.9506 39.1678 19.7035 39.4846 19.4905 39.8229C19.2865 40.1505 19.1147 40.4995 18.9876 40.8647C18.3862 42.5758 19.0359 44.1886 19.913 45.6652C20.3282 46.3633 20.7614 47.0542 21.1999 47.7398C21.25 47.8185 21.941 48.7278 21.9248 48.769Z" fill="#284345"/>
</svg>
